%TF.GenerationSoftware,KiCad,Pcbnew,(6.0.9)*%
%TF.CreationDate,2022-12-23T11:03:20+01:00*%
%TF.ProjectId,FM_Transmitter,464d5f54-7261-46e7-936d-69747465722e,rev?*%
%TF.SameCoordinates,Original*%
%TF.FileFunction,Paste,Top*%
%TF.FilePolarity,Positive*%
%FSLAX46Y46*%
G04 Gerber Fmt 4.6, Leading zero omitted, Abs format (unit mm)*
G04 Created by KiCad (PCBNEW (6.0.9)) date 2022-12-23 11:03:20*
%MOMM*%
%LPD*%
G01*
G04 APERTURE LIST*
G04 Aperture macros list*
%AMRoundRect*
0 Rectangle with rounded corners*
0 $1 Rounding radius*
0 $2 $3 $4 $5 $6 $7 $8 $9 X,Y pos of 4 corners*
0 Add a 4 corners polygon primitive as box body*
4,1,4,$2,$3,$4,$5,$6,$7,$8,$9,$2,$3,0*
0 Add four circle primitives for the rounded corners*
1,1,$1+$1,$2,$3*
1,1,$1+$1,$4,$5*
1,1,$1+$1,$6,$7*
1,1,$1+$1,$8,$9*
0 Add four rect primitives between the rounded corners*
20,1,$1+$1,$2,$3,$4,$5,0*
20,1,$1+$1,$4,$5,$6,$7,0*
20,1,$1+$1,$6,$7,$8,$9,0*
20,1,$1+$1,$8,$9,$2,$3,0*%
G04 Aperture macros list end*
%ADD10R,2.000000X2.500000*%
%ADD11RoundRect,0.250000X0.450000X-0.262500X0.450000X0.262500X-0.450000X0.262500X-0.450000X-0.262500X0*%
%ADD12RoundRect,0.150000X0.512500X0.150000X-0.512500X0.150000X-0.512500X-0.150000X0.512500X-0.150000X0*%
%ADD13RoundRect,0.218750X0.381250X-0.218750X0.381250X0.218750X-0.381250X0.218750X-0.381250X-0.218750X0*%
%ADD14R,1.600000X2.200000*%
%ADD15RoundRect,0.250000X-0.262500X-0.450000X0.262500X-0.450000X0.262500X0.450000X-0.262500X0.450000X0*%
%ADD16RoundRect,0.250000X-0.450000X0.262500X-0.450000X-0.262500X0.450000X-0.262500X0.450000X0.262500X0*%
%ADD17R,2.200000X1.600000*%
%ADD18RoundRect,0.250000X0.250000X0.475000X-0.250000X0.475000X-0.250000X-0.475000X0.250000X-0.475000X0*%
%ADD19RoundRect,0.250000X-0.475000X0.250000X-0.475000X-0.250000X0.475000X-0.250000X0.475000X0.250000X0*%
%ADD20R,2.200000X2.800000*%
%ADD21R,2.800000X2.800000*%
G04 APERTURE END LIST*
D10*
%TO.C,R4*%
X93082000Y-96273000D03*
X90932000Y-87623000D03*
X88782000Y-96273000D03*
%TD*%
D11*
%TO.C,R6*%
X85344000Y-91844500D03*
X85344000Y-90019500D03*
%TD*%
D10*
%TO.C,R3*%
X100702000Y-96273000D03*
X98552000Y-87623000D03*
X96402000Y-96273000D03*
%TD*%
D12*
%TO.C,U1*%
X82919918Y-96515407D03*
X82919918Y-95565407D03*
X82919918Y-94615407D03*
X80644918Y-94615407D03*
X80644918Y-95565407D03*
X80644918Y-96515407D03*
%TD*%
D13*
%TO.C,L1*%
X85344000Y-97074500D03*
X85344000Y-94949500D03*
%TD*%
D14*
%TO.C,C5*%
X73660000Y-92432000D03*
X73660000Y-89432000D03*
%TD*%
D15*
%TO.C,R7*%
X76461954Y-92405042D03*
X78286954Y-92405042D03*
%TD*%
D16*
%TO.C,R8*%
X78232000Y-97131500D03*
X78232000Y-98956500D03*
%TD*%
D17*
%TO.C,C1*%
X92988000Y-83312000D03*
X95988000Y-83312000D03*
%TD*%
D15*
%TO.C,R5*%
X84431500Y-99060000D03*
X86256500Y-99060000D03*
%TD*%
%TO.C,R1*%
X78335500Y-88900000D03*
X80160500Y-88900000D03*
%TD*%
D11*
%TO.C,R2*%
X87376000Y-83208500D03*
X87376000Y-81383500D03*
%TD*%
D18*
%TO.C,C7*%
X78166000Y-94488000D03*
X76266000Y-94488000D03*
%TD*%
D17*
%TO.C,C2*%
X86384000Y-102616000D03*
X89384000Y-102616000D03*
%TD*%
D19*
%TO.C,C4*%
X76200000Y-97094000D03*
X76200000Y-98994000D03*
%TD*%
D14*
%TO.C,C6*%
X69385490Y-92432000D03*
X69385490Y-89432000D03*
%TD*%
D18*
%TO.C,C3*%
X82738000Y-91440000D03*
X80838000Y-91440000D03*
%TD*%
D20*
%TO.C,J1*%
X75108000Y-78088000D03*
X73108000Y-85488000D03*
D21*
X82508000Y-85488000D03*
%TD*%
M02*
