%TF.GenerationSoftware,KiCad,Pcbnew,(6.0.9)*%
%TF.CreationDate,2022-12-23T11:03:20+01:00*%
%TF.ProjectId,FM_Transmitter,464d5f54-7261-46e7-936d-69747465722e,rev?*%
%TF.SameCoordinates,Original*%
%TF.FileFunction,Legend,Top*%
%TF.FilePolarity,Positive*%
%FSLAX46Y46*%
G04 Gerber Fmt 4.6, Leading zero omitted, Abs format (unit mm)*
G04 Created by KiCad (PCBNEW (6.0.9)) date 2022-12-23 11:03:20*
%MOMM*%
%LPD*%
G01*
G04 APERTURE LIST*
%ADD10C,0.150000*%
%ADD11C,0.125000*%
%ADD12C,0.120000*%
G04 APERTURE END LIST*
D10*
%TO.C,R4*%
X90734495Y-85915702D02*
X90401162Y-85439512D01*
X90163066Y-85915702D02*
X90163066Y-84915702D01*
X90544019Y-84915702D01*
X90639257Y-84963322D01*
X90686876Y-85010941D01*
X90734495Y-85106179D01*
X90734495Y-85249036D01*
X90686876Y-85344274D01*
X90639257Y-85391893D01*
X90544019Y-85439512D01*
X90163066Y-85439512D01*
X91591638Y-85249036D02*
X91591638Y-85915702D01*
X91353542Y-84868083D02*
X91115447Y-85582369D01*
X91734495Y-85582369D01*
%TO.C,R6*%
X84226451Y-89888478D02*
X83893118Y-90121812D01*
X84226451Y-90288478D02*
X83526451Y-90288478D01*
X83526451Y-90021812D01*
X83559785Y-89955145D01*
X83593118Y-89921812D01*
X83659785Y-89888478D01*
X83759785Y-89888478D01*
X83826451Y-89921812D01*
X83859785Y-89955145D01*
X83893118Y-90021812D01*
X83893118Y-90288478D01*
X83526451Y-89288478D02*
X83526451Y-89421812D01*
X83559785Y-89488478D01*
X83593118Y-89521812D01*
X83693118Y-89588478D01*
X83826451Y-89621812D01*
X84093118Y-89621812D01*
X84159785Y-89588478D01*
X84193118Y-89555145D01*
X84226451Y-89488478D01*
X84226451Y-89355145D01*
X84193118Y-89288478D01*
X84159785Y-89255145D01*
X84093118Y-89221812D01*
X83926451Y-89221812D01*
X83859785Y-89255145D01*
X83826451Y-89288478D01*
X83793118Y-89355145D01*
X83793118Y-89488478D01*
X83826451Y-89555145D01*
X83859785Y-89588478D01*
X83926451Y-89621812D01*
%TO.C,R3*%
X98385833Y-85838577D02*
X98052500Y-85362387D01*
X97814404Y-85838577D02*
X97814404Y-84838577D01*
X98195357Y-84838577D01*
X98290595Y-84886197D01*
X98338214Y-84933816D01*
X98385833Y-85029054D01*
X98385833Y-85171911D01*
X98338214Y-85267149D01*
X98290595Y-85314768D01*
X98195357Y-85362387D01*
X97814404Y-85362387D01*
X98719166Y-84838577D02*
X99338214Y-84838577D01*
X99004880Y-85219530D01*
X99147738Y-85219530D01*
X99242976Y-85267149D01*
X99290595Y-85314768D01*
X99338214Y-85410006D01*
X99338214Y-85648101D01*
X99290595Y-85743339D01*
X99242976Y-85790958D01*
X99147738Y-85838577D01*
X98862023Y-85838577D01*
X98766785Y-85790958D01*
X98719166Y-85743339D01*
%TO.C,U1*%
X80591454Y-92717349D02*
X80591454Y-93526873D01*
X80639073Y-93622111D01*
X80686692Y-93669730D01*
X80781930Y-93717349D01*
X80972406Y-93717349D01*
X81067644Y-93669730D01*
X81115263Y-93622111D01*
X81162882Y-93526873D01*
X81162882Y-92717349D01*
X82162882Y-93717349D02*
X81591454Y-93717349D01*
X81877168Y-93717349D02*
X81877168Y-92717349D01*
X81781930Y-92860207D01*
X81686692Y-92955445D01*
X81591454Y-93003064D01*
%TO.C,L1*%
X86997501Y-94604666D02*
X86997501Y-94938000D01*
X86297501Y-94938000D01*
X86997501Y-94004666D02*
X86997501Y-94404666D01*
X86997501Y-94204666D02*
X86297501Y-94204666D01*
X86397501Y-94271333D01*
X86464168Y-94338000D01*
X86497501Y-94404666D01*
%TO.C,C5*%
X71688976Y-93669503D02*
X71736595Y-93717122D01*
X71784214Y-93859979D01*
X71784214Y-93955217D01*
X71736595Y-94098075D01*
X71641357Y-94193313D01*
X71546119Y-94240932D01*
X71355643Y-94288551D01*
X71212786Y-94288551D01*
X71022310Y-94240932D01*
X70927072Y-94193313D01*
X70831834Y-94098075D01*
X70784214Y-93955217D01*
X70784214Y-93859979D01*
X70831834Y-93717122D01*
X70879453Y-93669503D01*
X70784214Y-92764741D02*
X70784214Y-93240932D01*
X71260405Y-93288551D01*
X71212786Y-93240932D01*
X71165167Y-93145694D01*
X71165167Y-92907598D01*
X71212786Y-92812360D01*
X71260405Y-92764741D01*
X71355643Y-92717122D01*
X71593738Y-92717122D01*
X71688976Y-92764741D01*
X71736595Y-92812360D01*
X71784214Y-92907598D01*
X71784214Y-93145694D01*
X71736595Y-93240932D01*
X71688976Y-93288551D01*
D11*
%TO.C,R7*%
X77445970Y-91331656D02*
X77279304Y-91093561D01*
X77160256Y-91331656D02*
X77160256Y-90831656D01*
X77350732Y-90831656D01*
X77398351Y-90855466D01*
X77422161Y-90879275D01*
X77445970Y-90926894D01*
X77445970Y-90998323D01*
X77422161Y-91045942D01*
X77398351Y-91069751D01*
X77350732Y-91093561D01*
X77160256Y-91093561D01*
X77612637Y-90831656D02*
X77945970Y-90831656D01*
X77731684Y-91331656D01*
D10*
%TO.C,H4*%
X69850095Y-104592380D02*
X69850095Y-103592380D01*
X69850095Y-104068571D02*
X70421523Y-104068571D01*
X70421523Y-104592380D02*
X70421523Y-103592380D01*
X71326285Y-103925714D02*
X71326285Y-104592380D01*
X71088190Y-103544761D02*
X70850095Y-104259047D01*
X71469142Y-104259047D01*
%TO.C,R8*%
X80198666Y-98160666D02*
X79865333Y-98394000D01*
X80198666Y-98560666D02*
X79498666Y-98560666D01*
X79498666Y-98294000D01*
X79532000Y-98227333D01*
X79565333Y-98194000D01*
X79632000Y-98160666D01*
X79732000Y-98160666D01*
X79798666Y-98194000D01*
X79832000Y-98227333D01*
X79865333Y-98294000D01*
X79865333Y-98560666D01*
X79798666Y-97760666D02*
X79765333Y-97827333D01*
X79732000Y-97860666D01*
X79665333Y-97894000D01*
X79632000Y-97894000D01*
X79565333Y-97860666D01*
X79532000Y-97827333D01*
X79498666Y-97760666D01*
X79498666Y-97627333D01*
X79532000Y-97560666D01*
X79565333Y-97527333D01*
X79632000Y-97494000D01*
X79665333Y-97494000D01*
X79732000Y-97527333D01*
X79765333Y-97560666D01*
X79798666Y-97627333D01*
X79798666Y-97760666D01*
X79832000Y-97827333D01*
X79865333Y-97860666D01*
X79932000Y-97894000D01*
X80065333Y-97894000D01*
X80132000Y-97860666D01*
X80165333Y-97827333D01*
X80198666Y-97760666D01*
X80198666Y-97627333D01*
X80165333Y-97560666D01*
X80132000Y-97527333D01*
X80065333Y-97494000D01*
X79932000Y-97494000D01*
X79865333Y-97527333D01*
X79832000Y-97560666D01*
X79798666Y-97627333D01*
%TO.C,C1*%
X94514665Y-80553299D02*
X94467046Y-80600918D01*
X94324189Y-80648537D01*
X94228951Y-80648537D01*
X94086093Y-80600918D01*
X93990855Y-80505680D01*
X93943236Y-80410442D01*
X93895617Y-80219966D01*
X93895617Y-80077109D01*
X93943236Y-79886633D01*
X93990855Y-79791395D01*
X94086093Y-79696157D01*
X94228951Y-79648537D01*
X94324189Y-79648537D01*
X94467046Y-79696157D01*
X94514665Y-79743776D01*
X95467046Y-80648537D02*
X94895617Y-80648537D01*
X95181332Y-80648537D02*
X95181332Y-79648537D01*
X95086093Y-79791395D01*
X94990855Y-79886633D01*
X94895617Y-79934252D01*
%TO.C,R5*%
X82021413Y-98803430D02*
X81688080Y-98327240D01*
X81449984Y-98803430D02*
X81449984Y-97803430D01*
X81830937Y-97803430D01*
X81926175Y-97851050D01*
X81973794Y-97898669D01*
X82021413Y-97993907D01*
X82021413Y-98136764D01*
X81973794Y-98232002D01*
X81926175Y-98279621D01*
X81830937Y-98327240D01*
X81449984Y-98327240D01*
X82926175Y-97803430D02*
X82449984Y-97803430D01*
X82402365Y-98279621D01*
X82449984Y-98232002D01*
X82545222Y-98184383D01*
X82783318Y-98184383D01*
X82878556Y-98232002D01*
X82926175Y-98279621D01*
X82973794Y-98374859D01*
X82973794Y-98612954D01*
X82926175Y-98708192D01*
X82878556Y-98755811D01*
X82783318Y-98803430D01*
X82545222Y-98803430D01*
X82449984Y-98755811D01*
X82402365Y-98708192D01*
%TO.C,R1*%
X79081333Y-87320380D02*
X78748000Y-86844190D01*
X78509904Y-87320380D02*
X78509904Y-86320380D01*
X78890857Y-86320380D01*
X78986095Y-86368000D01*
X79033714Y-86415619D01*
X79081333Y-86510857D01*
X79081333Y-86653714D01*
X79033714Y-86748952D01*
X78986095Y-86796571D01*
X78890857Y-86844190D01*
X78509904Y-86844190D01*
X80033714Y-87320380D02*
X79462285Y-87320380D01*
X79748000Y-87320380D02*
X79748000Y-86320380D01*
X79652761Y-86463238D01*
X79557523Y-86558476D01*
X79462285Y-86606095D01*
%TO.C,H3*%
X96214204Y-78810881D02*
X96214204Y-77810881D01*
X96214204Y-78287072D02*
X96785632Y-78287072D01*
X96785632Y-78810881D02*
X96785632Y-77810881D01*
X97166585Y-77810881D02*
X97785632Y-77810881D01*
X97452299Y-78191834D01*
X97595156Y-78191834D01*
X97690394Y-78239453D01*
X97738013Y-78287072D01*
X97785632Y-78382310D01*
X97785632Y-78620405D01*
X97738013Y-78715643D01*
X97690394Y-78763262D01*
X97595156Y-78810881D01*
X97309442Y-78810881D01*
X97214204Y-78763262D01*
X97166585Y-78715643D01*
%TO.C,R2*%
X89455409Y-82177926D02*
X88979219Y-82511260D01*
X89455409Y-82749355D02*
X88455409Y-82749355D01*
X88455409Y-82368402D01*
X88503029Y-82273164D01*
X88550648Y-82225545D01*
X88645886Y-82177926D01*
X88788743Y-82177926D01*
X88883981Y-82225545D01*
X88931600Y-82273164D01*
X88979219Y-82368402D01*
X88979219Y-82749355D01*
X88550648Y-81796974D02*
X88503029Y-81749355D01*
X88455409Y-81654117D01*
X88455409Y-81416021D01*
X88503029Y-81320783D01*
X88550648Y-81273164D01*
X88645886Y-81225545D01*
X88741124Y-81225545D01*
X88883981Y-81273164D01*
X89455409Y-81844593D01*
X89455409Y-81225545D01*
%TO.C,AE1*%
X70461333Y-97194666D02*
X70937523Y-97194666D01*
X70366095Y-97480380D02*
X70699428Y-96480380D01*
X71032761Y-97480380D01*
X71366095Y-96956571D02*
X71699428Y-96956571D01*
X71842285Y-97480380D02*
X71366095Y-97480380D01*
X71366095Y-96480380D01*
X71842285Y-96480380D01*
X72794666Y-97480380D02*
X72223238Y-97480380D01*
X72508952Y-97480380D02*
X72508952Y-96480380D01*
X72413714Y-96623238D01*
X72318476Y-96718476D01*
X72223238Y-96766095D01*
%TO.C,C7*%
X77751975Y-96195521D02*
X77718642Y-96228854D01*
X77618642Y-96262187D01*
X77551975Y-96262187D01*
X77451975Y-96228854D01*
X77385308Y-96162187D01*
X77351975Y-96095521D01*
X77318642Y-95962187D01*
X77318642Y-95862187D01*
X77351975Y-95728854D01*
X77385308Y-95662187D01*
X77451975Y-95595521D01*
X77551975Y-95562187D01*
X77618642Y-95562187D01*
X77718642Y-95595521D01*
X77751975Y-95628854D01*
X77985308Y-95562187D02*
X78451975Y-95562187D01*
X78151975Y-96262187D01*
%TO.C,C2*%
X88790917Y-100398864D02*
X88743298Y-100446483D01*
X88600441Y-100494102D01*
X88505203Y-100494102D01*
X88362345Y-100446483D01*
X88267107Y-100351245D01*
X88219488Y-100256007D01*
X88171869Y-100065531D01*
X88171869Y-99922674D01*
X88219488Y-99732198D01*
X88267107Y-99636960D01*
X88362345Y-99541722D01*
X88505203Y-99494102D01*
X88600441Y-99494102D01*
X88743298Y-99541722D01*
X88790917Y-99589341D01*
X89171869Y-99589341D02*
X89219488Y-99541722D01*
X89314726Y-99494102D01*
X89552822Y-99494102D01*
X89648060Y-99541722D01*
X89695679Y-99589341D01*
X89743298Y-99684579D01*
X89743298Y-99779817D01*
X89695679Y-99922674D01*
X89124250Y-100494102D01*
X89743298Y-100494102D01*
%TO.C,C4*%
X75782416Y-100810198D02*
X75734797Y-100857817D01*
X75591940Y-100905436D01*
X75496702Y-100905436D01*
X75353844Y-100857817D01*
X75258606Y-100762579D01*
X75210987Y-100667341D01*
X75163368Y-100476865D01*
X75163368Y-100334008D01*
X75210987Y-100143532D01*
X75258606Y-100048294D01*
X75353844Y-99953056D01*
X75496702Y-99905436D01*
X75591940Y-99905436D01*
X75734797Y-99953056D01*
X75782416Y-100000675D01*
X76639559Y-100238770D02*
X76639559Y-100905436D01*
X76401463Y-99857817D02*
X76163368Y-100572103D01*
X76782416Y-100572103D01*
%TO.C,C6*%
X67274253Y-91288610D02*
X67307586Y-91321944D01*
X67340919Y-91421944D01*
X67340919Y-91488610D01*
X67307586Y-91588610D01*
X67240919Y-91655277D01*
X67174253Y-91688610D01*
X67040919Y-91721944D01*
X66940919Y-91721944D01*
X66807586Y-91688610D01*
X66740919Y-91655277D01*
X66674253Y-91588610D01*
X66640919Y-91488610D01*
X66640919Y-91421944D01*
X66674253Y-91321944D01*
X66707586Y-91288610D01*
X66640919Y-90688610D02*
X66640919Y-90821944D01*
X66674253Y-90888610D01*
X66707586Y-90921944D01*
X66807586Y-90988610D01*
X66940919Y-91021944D01*
X67207586Y-91021944D01*
X67274253Y-90988610D01*
X67307586Y-90955277D01*
X67340919Y-90888610D01*
X67340919Y-90755277D01*
X67307586Y-90688610D01*
X67274253Y-90655277D01*
X67207586Y-90621944D01*
X67040919Y-90621944D01*
X66974253Y-90655277D01*
X66940919Y-90688610D01*
X66907586Y-90755277D01*
X66907586Y-90888610D01*
X66940919Y-90955277D01*
X66974253Y-90988610D01*
X67040919Y-91021944D01*
%TO.C,C3*%
X81671333Y-90258575D02*
X81638000Y-90291908D01*
X81538000Y-90325241D01*
X81471333Y-90325241D01*
X81371333Y-90291908D01*
X81304666Y-90225241D01*
X81271333Y-90158575D01*
X81238000Y-90025241D01*
X81238000Y-89925241D01*
X81271333Y-89791908D01*
X81304666Y-89725241D01*
X81371333Y-89658575D01*
X81471333Y-89625241D01*
X81538000Y-89625241D01*
X81638000Y-89658575D01*
X81671333Y-89691908D01*
X81904666Y-89625241D02*
X82338000Y-89625241D01*
X82104666Y-89891908D01*
X82204666Y-89891908D01*
X82271333Y-89925241D01*
X82304666Y-89958575D01*
X82338000Y-90025241D01*
X82338000Y-90191908D01*
X82304666Y-90258575D01*
X82271333Y-90291908D01*
X82204666Y-90325241D01*
X82004666Y-90325241D01*
X81938000Y-90291908D01*
X81904666Y-90258575D01*
%TO.C,J2*%
X77430666Y-103084380D02*
X77430666Y-103798666D01*
X77383047Y-103941523D01*
X77287809Y-104036761D01*
X77144952Y-104084380D01*
X77049714Y-104084380D01*
X77859238Y-103179619D02*
X77906857Y-103132000D01*
X78002095Y-103084380D01*
X78240190Y-103084380D01*
X78335428Y-103132000D01*
X78383047Y-103179619D01*
X78430666Y-103274857D01*
X78430666Y-103370095D01*
X78383047Y-103512952D01*
X77811619Y-104084380D01*
X78430666Y-104084380D01*
%TO.C,J1*%
X66508380Y-78057333D02*
X67222666Y-78057333D01*
X67365523Y-78104952D01*
X67460761Y-78200190D01*
X67508380Y-78343047D01*
X67508380Y-78438285D01*
X67508380Y-77057333D02*
X67508380Y-77628761D01*
X67508380Y-77343047D02*
X66508380Y-77343047D01*
X66651238Y-77438285D01*
X66746476Y-77533523D01*
X66794095Y-77628761D01*
D12*
%TO.C,R4*%
X87561000Y-94782000D02*
X87561000Y-88578000D01*
X94302000Y-94782000D02*
X94302000Y-88578000D01*
X92172000Y-88578000D02*
X94302000Y-88578000D01*
X87561000Y-88578000D02*
X89692000Y-88578000D01*
X90023000Y-95318000D02*
X91842000Y-95318000D01*
%TO.C,R6*%
X86079000Y-91159064D02*
X86079000Y-90704936D01*
X84609000Y-91159064D02*
X84609000Y-90704936D01*
%TO.C,R3*%
X95181000Y-88578000D02*
X97312000Y-88578000D01*
X99792000Y-88578000D02*
X101922000Y-88578000D01*
X95181000Y-94782000D02*
X95181000Y-88578000D01*
X97643000Y-95318000D02*
X99462000Y-95318000D01*
X101922000Y-94782000D02*
X101922000Y-88578000D01*
%TO.C,U1*%
X81782418Y-97125407D02*
X83582418Y-97125407D01*
X81782418Y-94005407D02*
X82582418Y-94005407D01*
X81782418Y-94005407D02*
X80982418Y-94005407D01*
X81782418Y-97125407D02*
X80982418Y-97125407D01*
%TO.C,L1*%
X85904000Y-96411622D02*
X85904000Y-95612378D01*
X84784000Y-96411622D02*
X84784000Y-95612378D01*
%TO.C,C5*%
X71900000Y-89172000D02*
X72600000Y-89172000D01*
X72600000Y-92502563D02*
X71900000Y-91802563D01*
X72225000Y-93307000D02*
X72225000Y-92932000D01*
X75420000Y-91802563D02*
X75420000Y-89172000D01*
X71900000Y-91802563D02*
X71900000Y-89172000D01*
X74720000Y-92502563D02*
X75420000Y-91802563D01*
X75420000Y-89172000D02*
X74720000Y-89172000D01*
X72037500Y-93119500D02*
X72412500Y-93119500D01*
%TO.C,R7*%
X77147390Y-91670042D02*
X77601518Y-91670042D01*
X77147390Y-93140042D02*
X77601518Y-93140042D01*
%TO.C,R8*%
X77497000Y-97816936D02*
X77497000Y-98271064D01*
X78967000Y-97816936D02*
X78967000Y-98271064D01*
%TO.C,C1*%
X96248000Y-85072000D02*
X96248000Y-84372000D01*
X92113000Y-81877000D02*
X92488000Y-81877000D01*
X93617437Y-85072000D02*
X96248000Y-85072000D01*
X96248000Y-81552000D02*
X96248000Y-82252000D01*
X92300500Y-81689500D02*
X92300500Y-82064500D01*
X92917437Y-82252000D02*
X93617437Y-81552000D01*
X92917437Y-84372000D02*
X93617437Y-85072000D01*
X93617437Y-81552000D02*
X96248000Y-81552000D01*
%TO.C,R5*%
X85116936Y-98325000D02*
X85571064Y-98325000D01*
X85116936Y-99795000D02*
X85571064Y-99795000D01*
%TO.C,R1*%
X79020936Y-88165000D02*
X79475064Y-88165000D01*
X79020936Y-89635000D02*
X79475064Y-89635000D01*
%TO.C,R2*%
X88111000Y-82523064D02*
X88111000Y-82068936D01*
X86641000Y-82523064D02*
X86641000Y-82068936D01*
%TO.C,AE1*%
X72527000Y-98450000D02*
X68197000Y-98450000D01*
X72527000Y-99670000D02*
X68197000Y-99670000D01*
%TO.C,C7*%
X77477252Y-95223000D02*
X76954748Y-95223000D01*
X77477252Y-93753000D02*
X76954748Y-93753000D01*
%TO.C,C2*%
X87013437Y-104376000D02*
X89644000Y-104376000D01*
X86313437Y-101556000D02*
X87013437Y-100856000D01*
X89644000Y-104376000D02*
X89644000Y-103676000D01*
X86313437Y-103676000D02*
X87013437Y-104376000D01*
X85696500Y-100993500D02*
X85696500Y-101368500D01*
X89644000Y-100856000D02*
X89644000Y-101556000D01*
X85509000Y-101181000D02*
X85884000Y-101181000D01*
X87013437Y-100856000D02*
X89644000Y-100856000D01*
%TO.C,C4*%
X76935000Y-97782748D02*
X76935000Y-98305252D01*
X75465000Y-97782748D02*
X75465000Y-98305252D01*
%TO.C,C6*%
X67625490Y-91802563D02*
X67625490Y-89172000D01*
X67762990Y-93119500D02*
X68137990Y-93119500D01*
X71145490Y-91802563D02*
X71145490Y-89172000D01*
X67625490Y-89172000D02*
X68325490Y-89172000D01*
X67950490Y-93307000D02*
X67950490Y-92932000D01*
X71145490Y-89172000D02*
X70445490Y-89172000D01*
X70445490Y-92502563D02*
X71145490Y-91802563D01*
X68325490Y-92502563D02*
X67625490Y-91802563D01*
%TO.C,C3*%
X82049252Y-92175000D02*
X81526748Y-92175000D01*
X82049252Y-90705000D02*
X81526748Y-90705000D01*
%TO.C,J2*%
X79204000Y-101048000D02*
X80264000Y-101048000D01*
X81264000Y-101048000D02*
X83324000Y-101048000D01*
X83324000Y-103168000D02*
X83324000Y-101048000D01*
X81264000Y-103168000D02*
X81264000Y-101048000D01*
X79204000Y-102108000D02*
X79204000Y-101048000D01*
X81264000Y-103168000D02*
X83324000Y-103168000D01*
%TO.C,J1*%
X71808000Y-84888000D02*
X70608000Y-84888000D01*
X85308000Y-78688000D02*
X85308000Y-84888000D01*
X70608000Y-84888000D02*
X70608000Y-84388000D01*
X68108000Y-79188000D02*
X70608000Y-79188000D01*
X71808000Y-84888000D02*
X71808000Y-86888000D01*
X70608000Y-84388000D02*
X68108000Y-84388000D01*
X76408000Y-78688000D02*
X85308000Y-78688000D01*
X80908000Y-84888000D02*
X74408000Y-84888000D01*
X70608000Y-79188000D02*
X70608000Y-78688000D01*
X70608000Y-78688000D02*
X73808000Y-78688000D01*
X68108000Y-84388000D02*
X68108000Y-79188000D01*
X74408000Y-84888000D02*
X74408000Y-86888000D01*
X85308000Y-84888000D02*
X84108000Y-84888000D01*
%TD*%
M02*
